<mxfile host="app.diagrams.net" agent="Mozilla/5.0 (Windows NT 10.0; Win64; x64) AppleWebKit/537.36 (KHTML, like Gecko) Chrome/135.0.0.0 Safari/537.36" version="26.2.12">
  <diagram name="Page-1" id="58cdce13-f638-feb5-8d6f-7d28b1aa9fa0">
    <mxGraphModel dx="2128" dy="516" grid="1" gridSize="10" guides="1" tooltips="1" connect="1" arrows="1" fold="1" page="1" pageScale="1" pageWidth="1100" pageHeight="850" background="none" math="0" shadow="0">
      <root>
        <mxCell id="0" />
        <mxCell id="1" parent="0" />
        <mxCell id="2a3bc250acf0617d-8" value="" style="shape=umlFrame;whiteSpace=wrap;html=1;rounded=1;shadow=0;comic=0;labelBackgroundColor=none;strokeWidth=1;fontFamily=Verdana;fontSize=12;align=center;" parent="1" vertex="1">
          <mxGeometry x="-140" y="105" width="1380" height="940" as="geometry" />
        </mxCell>
        <mxCell id="rnuL1dBGBpYoeUhFyiNH-2" value="" style="ellipse;html=1;shape=startState;fillColor=#000000;strokeColor=#ff0000;" vertex="1" parent="1">
          <mxGeometry x="530" y="170" width="30" height="30" as="geometry" />
        </mxCell>
        <mxCell id="rnuL1dBGBpYoeUhFyiNH-3" value="" style="edgeStyle=orthogonalEdgeStyle;html=1;verticalAlign=bottom;endArrow=open;endSize=8;strokeColor=#ff0000;rounded=0;" edge="1" source="rnuL1dBGBpYoeUhFyiNH-2" parent="1">
          <mxGeometry relative="1" as="geometry">
            <mxPoint x="545" y="260" as="targetPoint" />
          </mxGeometry>
        </mxCell>
        <mxCell id="rnuL1dBGBpYoeUhFyiNH-4" value="Log In" style="swimlane;fontStyle=1;align=center;verticalAlign=middle;childLayout=stackLayout;horizontal=1;startSize=30;horizontalStack=0;resizeParent=0;resizeLast=1;container=0;fontColor=#000000;collapsible=0;rounded=1;arcSize=30;strokeColor=#ff0000;fillColor=#ffffc0;swimlaneFillColor=#ffffc0;dropTarget=0;" vertex="1" parent="1">
          <mxGeometry x="465" y="260" width="160" height="60" as="geometry" />
        </mxCell>
        <mxCell id="rnuL1dBGBpYoeUhFyiNH-5" value="entry: Credintials&lt;div&gt;exit: Log In successful&lt;/div&gt;" style="text;html=1;strokeColor=none;fillColor=none;align=center;verticalAlign=middle;spacingLeft=4;spacingRight=4;whiteSpace=wrap;overflow=hidden;rotatable=0;fontColor=#000000;" vertex="1" parent="rnuL1dBGBpYoeUhFyiNH-4">
          <mxGeometry y="30" width="160" height="30" as="geometry" />
        </mxCell>
        <mxCell id="rnuL1dBGBpYoeUhFyiNH-15" value="" style="endArrow=classic;html=1;rounded=0;exitX=0;exitY=0;exitDx=0;exitDy=0;entryX=0.154;entryY=0.047;entryDx=0;entryDy=0;entryPerimeter=0;" edge="1" parent="rnuL1dBGBpYoeUhFyiNH-4" source="rnuL1dBGBpYoeUhFyiNH-5" target="rnuL1dBGBpYoeUhFyiNH-4">
          <mxGeometry width="50" height="50" relative="1" as="geometry">
            <mxPoint x="55" y="-20" as="sourcePoint" />
            <mxPoint x="105" y="-70" as="targetPoint" />
            <Array as="points">
              <mxPoint x="-35" y="30" />
              <mxPoint x="-35" y="-20" />
              <mxPoint x="25" y="-20" />
            </Array>
          </mxGeometry>
        </mxCell>
        <mxCell id="rnuL1dBGBpYoeUhFyiNH-7" value="Log In successful" style="text;html=1;align=center;verticalAlign=middle;whiteSpace=wrap;rounded=0;" vertex="1" parent="1">
          <mxGeometry x="550" y="330" width="60" height="30" as="geometry" />
        </mxCell>
        <mxCell id="rnuL1dBGBpYoeUhFyiNH-9" value="" style="endArrow=classic;html=1;rounded=0;exitX=0.5;exitY=1;exitDx=0;exitDy=0;" edge="1" parent="1" source="rnuL1dBGBpYoeUhFyiNH-5" target="rnuL1dBGBpYoeUhFyiNH-10">
          <mxGeometry width="50" height="50" relative="1" as="geometry">
            <mxPoint x="520" y="240" as="sourcePoint" />
            <mxPoint x="570" y="190" as="targetPoint" />
          </mxGeometry>
        </mxCell>
        <mxCell id="rnuL1dBGBpYoeUhFyiNH-62" style="edgeStyle=orthogonalEdgeStyle;rounded=0;orthogonalLoop=1;jettySize=auto;html=1;entryX=0.5;entryY=0;entryDx=0;entryDy=0;" edge="1" parent="1" source="rnuL1dBGBpYoeUhFyiNH-10" target="rnuL1dBGBpYoeUhFyiNH-26">
          <mxGeometry relative="1" as="geometry">
            <Array as="points">
              <mxPoint x="640" y="390" />
              <mxPoint x="640" y="225" />
              <mxPoint x="920" y="225" />
            </Array>
          </mxGeometry>
        </mxCell>
        <mxCell id="rnuL1dBGBpYoeUhFyiNH-10" value="Dashboard" style="swimlane;fontStyle=1;align=center;verticalAlign=middle;childLayout=stackLayout;horizontal=1;startSize=30;horizontalStack=0;resizeParent=0;resizeLast=1;container=0;fontColor=#000000;collapsible=0;rounded=1;arcSize=30;strokeColor=#ff0000;fillColor=#ffffc0;swimlaneFillColor=#ffffc0;dropTarget=0;" vertex="1" parent="1">
          <mxGeometry x="465" y="365" width="160" height="195" as="geometry" />
        </mxCell>
        <mxCell id="rnuL1dBGBpYoeUhFyiNH-11" value="&lt;div&gt;entry: View dashboard list&lt;/div&gt;do: Book a service&lt;div&gt;do: Search for attractions or events&lt;/div&gt;&lt;div&gt;do: View booking history&lt;/div&gt;&lt;div&gt;do: Provide emergency contact&lt;/div&gt;&lt;div&gt;do: Switch language&lt;/div&gt;&lt;div&gt;do: Update profile&lt;/div&gt;&lt;div&gt;do: Contact support&lt;/div&gt;&lt;div&gt;exit: Log Out&lt;/div&gt;&lt;div&gt;&lt;br&gt;&lt;/div&gt;" style="text;html=1;strokeColor=none;fillColor=none;align=center;verticalAlign=middle;spacingLeft=4;spacingRight=4;whiteSpace=wrap;overflow=hidden;rotatable=0;fontColor=#000000;" vertex="1" parent="rnuL1dBGBpYoeUhFyiNH-10">
          <mxGeometry y="30" width="160" height="165" as="geometry" />
        </mxCell>
        <mxCell id="rnuL1dBGBpYoeUhFyiNH-16" value="Log In unsuccessful" style="text;html=1;align=center;verticalAlign=middle;whiteSpace=wrap;rounded=0;" vertex="1" parent="1">
          <mxGeometry x="360" y="250" width="60" height="30" as="geometry" />
        </mxCell>
        <mxCell id="rnuL1dBGBpYoeUhFyiNH-17" value="Log Out" style="swimlane;fontStyle=1;align=center;verticalAlign=middle;childLayout=stackLayout;horizontal=1;startSize=30;horizontalStack=0;resizeParent=0;resizeLast=1;container=0;fontColor=#000000;collapsible=0;rounded=1;arcSize=30;strokeColor=#ff0000;fillColor=#ffffc0;swimlaneFillColor=#ffffc0;dropTarget=0;" vertex="1" parent="1">
          <mxGeometry x="465" y="600" width="160" height="60" as="geometry" />
        </mxCell>
        <mxCell id="rnuL1dBGBpYoeUhFyiNH-18" value="exit: Log Out" style="text;html=1;strokeColor=none;fillColor=none;align=center;verticalAlign=middle;spacingLeft=4;spacingRight=4;whiteSpace=wrap;overflow=hidden;rotatable=0;fontColor=#000000;" vertex="1" parent="rnuL1dBGBpYoeUhFyiNH-17">
          <mxGeometry y="30" width="160" height="30" as="geometry" />
        </mxCell>
        <mxCell id="rnuL1dBGBpYoeUhFyiNH-21" value="" style="ellipse;html=1;shape=endState;fillColor=#000000;strokeColor=#ff0000;" vertex="1" parent="1">
          <mxGeometry x="530" y="710" width="30" height="30" as="geometry" />
        </mxCell>
        <mxCell id="rnuL1dBGBpYoeUhFyiNH-22" style="edgeStyle=orthogonalEdgeStyle;rounded=0;orthogonalLoop=1;jettySize=auto;html=1;entryX=0.5;entryY=0;entryDx=0;entryDy=0;" edge="1" parent="1" source="rnuL1dBGBpYoeUhFyiNH-18" target="rnuL1dBGBpYoeUhFyiNH-21">
          <mxGeometry relative="1" as="geometry" />
        </mxCell>
        <mxCell id="rnuL1dBGBpYoeUhFyiNH-24" style="edgeStyle=orthogonalEdgeStyle;rounded=0;orthogonalLoop=1;jettySize=auto;html=1;entryX=0.5;entryY=0;entryDx=0;entryDy=0;" edge="1" parent="1" source="rnuL1dBGBpYoeUhFyiNH-11" target="rnuL1dBGBpYoeUhFyiNH-17">
          <mxGeometry relative="1" as="geometry" />
        </mxCell>
        <mxCell id="rnuL1dBGBpYoeUhFyiNH-25" value="Log Out" style="text;html=1;align=center;verticalAlign=middle;whiteSpace=wrap;rounded=0;" vertex="1" parent="1">
          <mxGeometry x="550" y="570" width="50" height="10" as="geometry" />
        </mxCell>
        <mxCell id="rnuL1dBGBpYoeUhFyiNH-26" value="Book a service" style="swimlane;fontStyle=1;align=center;verticalAlign=middle;childLayout=stackLayout;horizontal=1;startSize=30;horizontalStack=0;resizeParent=0;resizeLast=1;container=0;fontColor=#000000;collapsible=0;rounded=1;arcSize=30;strokeColor=#ff0000;fillColor=#ffffc0;swimlaneFillColor=#ffffc0;dropTarget=0;" vertex="1" parent="1">
          <mxGeometry x="840" y="245" width="160" height="120" as="geometry" />
        </mxCell>
        <mxCell id="rnuL1dBGBpYoeUhFyiNH-27" value="entry: View services list&lt;div&gt;do: Select service&lt;/div&gt;&lt;div&gt;do: Enter required data&lt;/div&gt;&lt;div&gt;exit: Go back to dashboard&lt;/div&gt;&lt;div&gt;exit: Go to payment page&lt;/div&gt;" style="text;html=1;strokeColor=none;fillColor=none;align=center;verticalAlign=middle;spacingLeft=4;spacingRight=4;whiteSpace=wrap;overflow=hidden;rotatable=0;fontColor=#000000;" vertex="1" parent="rnuL1dBGBpYoeUhFyiNH-26">
          <mxGeometry y="30" width="160" height="90" as="geometry" />
        </mxCell>
        <mxCell id="rnuL1dBGBpYoeUhFyiNH-31" value="Payment page" style="swimlane;fontStyle=1;align=center;verticalAlign=middle;childLayout=stackLayout;horizontal=1;startSize=30;horizontalStack=0;resizeParent=0;resizeLast=1;container=0;fontColor=#000000;collapsible=0;rounded=1;arcSize=30;strokeColor=#ff0000;fillColor=#ffffc0;swimlaneFillColor=#ffffc0;dropTarget=0;" vertex="1" parent="1">
          <mxGeometry x="1050" y="380" width="160" height="100" as="geometry" />
        </mxCell>
        <mxCell id="rnuL1dBGBpYoeUhFyiNH-32" value="do: Enter payment method&lt;div&gt;do: Enter card credintials&lt;/div&gt;&lt;div&gt;do: Confirm payment&lt;/div&gt;&lt;div&gt;exit: Go back to dashboard&lt;/div&gt;" style="text;html=1;strokeColor=none;fillColor=none;align=center;verticalAlign=middle;spacingLeft=4;spacingRight=4;whiteSpace=wrap;overflow=hidden;rotatable=0;fontColor=#000000;" vertex="1" parent="rnuL1dBGBpYoeUhFyiNH-31">
          <mxGeometry y="30" width="160" height="70" as="geometry" />
        </mxCell>
        <mxCell id="rnuL1dBGBpYoeUhFyiNH-34" style="edgeStyle=orthogonalEdgeStyle;rounded=0;orthogonalLoop=1;jettySize=auto;html=1;entryX=0.5;entryY=0;entryDx=0;entryDy=0;" edge="1" parent="1" source="rnuL1dBGBpYoeUhFyiNH-27" target="rnuL1dBGBpYoeUhFyiNH-31">
          <mxGeometry relative="1" as="geometry" />
        </mxCell>
        <mxCell id="rnuL1dBGBpYoeUhFyiNH-35" value="Payment page" style="text;html=1;align=center;verticalAlign=middle;whiteSpace=wrap;rounded=0;" vertex="1" parent="1">
          <mxGeometry x="1020" y="310" width="80" height="10" as="geometry" />
        </mxCell>
        <mxCell id="rnuL1dBGBpYoeUhFyiNH-42" style="edgeStyle=orthogonalEdgeStyle;rounded=0;orthogonalLoop=1;jettySize=auto;html=1;entryX=0;entryY=0.5;entryDx=0;entryDy=0;" edge="1" parent="1" source="rnuL1dBGBpYoeUhFyiNH-36" target="rnuL1dBGBpYoeUhFyiNH-32">
          <mxGeometry relative="1" as="geometry">
            <Array as="points">
              <mxPoint x="1050" y="435" />
            </Array>
          </mxGeometry>
        </mxCell>
        <mxCell id="rnuL1dBGBpYoeUhFyiNH-36" value="Search for attractions &#xa;or events" style="swimlane;fontStyle=1;align=center;verticalAlign=middle;childLayout=stackLayout;horizontal=1;startSize=30;horizontalStack=0;resizeParent=0;resizeLast=1;container=0;fontColor=#000000;collapsible=0;rounded=1;arcSize=30;strokeColor=#ff0000;fillColor=#ffffc0;swimlaneFillColor=#ffffc0;dropTarget=0;" vertex="1" parent="1">
          <mxGeometry x="750" y="380" width="160" height="110" as="geometry" />
        </mxCell>
        <mxCell id="rnuL1dBGBpYoeUhFyiNH-37" value="do: Select attraction or event&lt;div&gt;do: Enter required data&lt;/div&gt;&lt;div&gt;&lt;div&gt;exit: Go back to dashboard&lt;/div&gt;&lt;div&gt;exit: Go to payment page&lt;/div&gt;&lt;/div&gt;" style="text;html=1;strokeColor=none;fillColor=none;align=center;verticalAlign=middle;spacingLeft=4;spacingRight=4;whiteSpace=wrap;overflow=hidden;rotatable=0;fontColor=#000000;" vertex="1" parent="rnuL1dBGBpYoeUhFyiNH-36">
          <mxGeometry y="30" width="160" height="80" as="geometry" />
        </mxCell>
        <mxCell id="rnuL1dBGBpYoeUhFyiNH-43" value="Payment page" style="text;html=1;align=center;verticalAlign=middle;whiteSpace=wrap;rounded=0;" vertex="1" parent="1">
          <mxGeometry x="940" y="420" width="80" height="10" as="geometry" />
        </mxCell>
        <mxCell id="rnuL1dBGBpYoeUhFyiNH-44" value="View booking history" style="swimlane;fontStyle=1;align=center;verticalAlign=middle;childLayout=stackLayout;horizontal=1;startSize=30;horizontalStack=0;resizeParent=0;resizeLast=1;container=0;fontColor=#000000;collapsible=0;rounded=1;arcSize=30;strokeColor=#ff0000;fillColor=#ffffc0;swimlaneFillColor=#ffffc0;dropTarget=0;" vertex="1" parent="1">
          <mxGeometry x="730" y="580" width="160" height="120" as="geometry" />
        </mxCell>
        <mxCell id="rnuL1dBGBpYoeUhFyiNH-45" value="entry: Booking history list&lt;div&gt;do: Open booking&lt;/div&gt;&lt;div&gt;exit: Leave a review&lt;/div&gt;&lt;div&gt;exit: Cancel booking&lt;/div&gt;&lt;div&gt;exit: Go back to dashboard&lt;/div&gt;" style="text;html=1;strokeColor=none;fillColor=none;align=center;verticalAlign=middle;spacingLeft=4;spacingRight=4;whiteSpace=wrap;overflow=hidden;rotatable=0;fontColor=#000000;" vertex="1" parent="rnuL1dBGBpYoeUhFyiNH-44">
          <mxGeometry y="30" width="160" height="90" as="geometry" />
        </mxCell>
        <mxCell id="rnuL1dBGBpYoeUhFyiNH-47" value="Leave a review" style="swimlane;fontStyle=1;align=center;verticalAlign=middle;childLayout=stackLayout;horizontal=1;startSize=30;horizontalStack=0;resizeParent=0;resizeLast=1;container=0;fontColor=#000000;collapsible=0;rounded=1;arcSize=30;strokeColor=#ff0000;fillColor=#ffffc0;swimlaneFillColor=#ffffc0;dropTarget=0;" vertex="1" parent="1">
          <mxGeometry x="920" y="710" width="160" height="90" as="geometry" />
        </mxCell>
        <mxCell id="rnuL1dBGBpYoeUhFyiNH-48" value="do: Write the review&lt;div&gt;do: Upload photos&lt;/div&gt;&lt;div&gt;exit: Go back to dashboard&lt;/div&gt;" style="text;html=1;strokeColor=none;fillColor=none;align=center;verticalAlign=middle;spacingLeft=4;spacingRight=4;whiteSpace=wrap;overflow=hidden;rotatable=0;fontColor=#000000;" vertex="1" parent="rnuL1dBGBpYoeUhFyiNH-47">
          <mxGeometry y="30" width="160" height="60" as="geometry" />
        </mxCell>
        <mxCell id="rnuL1dBGBpYoeUhFyiNH-50" value="do: Write the review&lt;div&gt;do: Upload photos&lt;/div&gt;&lt;div&gt;exit: Go back to dashboard&lt;/div&gt;" style="text;html=1;strokeColor=none;fillColor=none;align=center;verticalAlign=middle;spacingLeft=4;spacingRight=4;whiteSpace=wrap;overflow=hidden;rotatable=0;fontColor=#000000;" vertex="1" parent="rnuL1dBGBpYoeUhFyiNH-47">
          <mxGeometry y="90" width="160" as="geometry" />
        </mxCell>
        <mxCell id="rnuL1dBGBpYoeUhFyiNH-51" value="Cancel booking" style="swimlane;fontStyle=1;align=center;verticalAlign=middle;childLayout=stackLayout;horizontal=1;startSize=30;horizontalStack=0;resizeParent=0;resizeLast=1;container=0;fontColor=#000000;collapsible=0;rounded=1;arcSize=30;strokeColor=#ff0000;fillColor=#ffffc0;swimlaneFillColor=#ffffc0;dropTarget=0;" vertex="1" parent="1">
          <mxGeometry x="680" y="770" width="160" height="70" as="geometry" />
        </mxCell>
        <mxCell id="rnuL1dBGBpYoeUhFyiNH-52" value="do: Confirm cancelation&lt;div&gt;exit: Go back to dashboard&lt;/div&gt;" style="text;html=1;strokeColor=none;fillColor=none;align=center;verticalAlign=middle;spacingLeft=4;spacingRight=4;whiteSpace=wrap;overflow=hidden;rotatable=0;fontColor=#000000;" vertex="1" parent="rnuL1dBGBpYoeUhFyiNH-51">
          <mxGeometry y="30" width="160" height="40" as="geometry" />
        </mxCell>
        <mxCell id="rnuL1dBGBpYoeUhFyiNH-54" style="edgeStyle=orthogonalEdgeStyle;rounded=0;orthogonalLoop=1;jettySize=auto;html=1;" edge="1" parent="1" source="rnuL1dBGBpYoeUhFyiNH-45" target="rnuL1dBGBpYoeUhFyiNH-47">
          <mxGeometry relative="1" as="geometry" />
        </mxCell>
        <mxCell id="rnuL1dBGBpYoeUhFyiNH-55" style="edgeStyle=orthogonalEdgeStyle;rounded=0;orthogonalLoop=1;jettySize=auto;html=1;" edge="1" parent="1" source="rnuL1dBGBpYoeUhFyiNH-45" target="rnuL1dBGBpYoeUhFyiNH-51">
          <mxGeometry relative="1" as="geometry" />
        </mxCell>
        <mxCell id="rnuL1dBGBpYoeUhFyiNH-59" style="edgeStyle=orthogonalEdgeStyle;rounded=0;orthogonalLoop=1;jettySize=auto;html=1;" edge="1" parent="1" source="rnuL1dBGBpYoeUhFyiNH-27">
          <mxGeometry relative="1" as="geometry">
            <mxPoint x="625" y="420" as="targetPoint" />
            <Array as="points">
              <mxPoint x="680" y="320" />
              <mxPoint x="680" y="420" />
              <mxPoint x="625" y="420" />
            </Array>
          </mxGeometry>
        </mxCell>
        <mxCell id="rnuL1dBGBpYoeUhFyiNH-61" style="edgeStyle=orthogonalEdgeStyle;rounded=0;orthogonalLoop=1;jettySize=auto;html=1;" edge="1" parent="1" source="rnuL1dBGBpYoeUhFyiNH-32" target="rnuL1dBGBpYoeUhFyiNH-11">
          <mxGeometry relative="1" as="geometry">
            <Array as="points">
              <mxPoint x="840" y="520" />
              <mxPoint x="840" y="520" />
            </Array>
          </mxGeometry>
        </mxCell>
        <mxCell id="rnuL1dBGBpYoeUhFyiNH-64" style="edgeStyle=orthogonalEdgeStyle;rounded=0;orthogonalLoop=1;jettySize=auto;html=1;entryX=-0.002;entryY=0.631;entryDx=0;entryDy=0;entryPerimeter=0;" edge="1" parent="1" source="rnuL1dBGBpYoeUhFyiNH-11" target="rnuL1dBGBpYoeUhFyiNH-37">
          <mxGeometry relative="1" as="geometry">
            <Array as="points">
              <mxPoint x="660" y="460" />
              <mxPoint x="660" y="460" />
            </Array>
          </mxGeometry>
        </mxCell>
        <mxCell id="rnuL1dBGBpYoeUhFyiNH-66" value="Book" style="text;html=1;align=center;verticalAlign=middle;whiteSpace=wrap;rounded=0;" vertex="1" parent="1">
          <mxGeometry x="720" y="200" width="60" height="30" as="geometry" />
        </mxCell>
        <mxCell id="rnuL1dBGBpYoeUhFyiNH-67" value="Go back" style="text;html=1;align=center;verticalAlign=middle;whiteSpace=wrap;rounded=0;" vertex="1" parent="1">
          <mxGeometry x="740" y="300" width="60" height="30" as="geometry" />
        </mxCell>
        <mxCell id="rnuL1dBGBpYoeUhFyiNH-69" value="Search" style="text;html=1;align=center;verticalAlign=middle;whiteSpace=wrap;rounded=0;" vertex="1" parent="1">
          <mxGeometry x="625" y="435" width="60" height="30" as="geometry" />
        </mxCell>
        <mxCell id="rnuL1dBGBpYoeUhFyiNH-70" style="edgeStyle=orthogonalEdgeStyle;rounded=0;orthogonalLoop=1;jettySize=auto;html=1;exitX=0.13;exitY=1.013;exitDx=0;exitDy=0;exitPerimeter=0;" edge="1" parent="1" source="rnuL1dBGBpYoeUhFyiNH-37" target="rnuL1dBGBpYoeUhFyiNH-11">
          <mxGeometry relative="1" as="geometry">
            <Array as="points">
              <mxPoint x="690" y="490" />
            </Array>
          </mxGeometry>
        </mxCell>
        <mxCell id="rnuL1dBGBpYoeUhFyiNH-71" value="Go back" style="text;html=1;align=center;verticalAlign=middle;whiteSpace=wrap;rounded=0;" vertex="1" parent="1">
          <mxGeometry x="640" y="470" width="60" height="30" as="geometry" />
        </mxCell>
        <mxCell id="rnuL1dBGBpYoeUhFyiNH-74" value="Go back" style="text;html=1;align=center;verticalAlign=middle;whiteSpace=wrap;rounded=0;" vertex="1" parent="1">
          <mxGeometry x="860" y="500" width="60" height="30" as="geometry" />
        </mxCell>
        <mxCell id="rnuL1dBGBpYoeUhFyiNH-75" style="edgeStyle=orthogonalEdgeStyle;rounded=0;orthogonalLoop=1;jettySize=auto;html=1;exitX=1.014;exitY=0.875;exitDx=0;exitDy=0;exitPerimeter=0;" edge="1" parent="1" source="rnuL1dBGBpYoeUhFyiNH-11" target="rnuL1dBGBpYoeUhFyiNH-44">
          <mxGeometry relative="1" as="geometry">
            <Array as="points">
              <mxPoint x="650" y="539" />
              <mxPoint x="650" y="650" />
            </Array>
          </mxGeometry>
        </mxCell>
        <mxCell id="rnuL1dBGBpYoeUhFyiNH-76" value="View" style="text;html=1;align=center;verticalAlign=middle;whiteSpace=wrap;rounded=0;" vertex="1" parent="1">
          <mxGeometry x="650" y="625" width="60" height="30" as="geometry" />
        </mxCell>
        <mxCell id="rnuL1dBGBpYoeUhFyiNH-77" style="edgeStyle=orthogonalEdgeStyle;rounded=0;orthogonalLoop=1;jettySize=auto;html=1;" edge="1" parent="1" target="rnuL1dBGBpYoeUhFyiNH-11">
          <mxGeometry relative="1" as="geometry">
            <mxPoint x="810" y="580" as="sourcePoint" />
            <mxPoint x="650" y="530" as="targetPoint" />
            <Array as="points">
              <mxPoint x="810" y="570" />
              <mxPoint x="690" y="570" />
              <mxPoint x="690" y="530" />
            </Array>
          </mxGeometry>
        </mxCell>
        <mxCell id="rnuL1dBGBpYoeUhFyiNH-78" value="Go back" style="text;html=1;align=center;verticalAlign=middle;whiteSpace=wrap;rounded=0;" vertex="1" parent="1">
          <mxGeometry x="710" y="550" width="60" height="30" as="geometry" />
        </mxCell>
        <mxCell id="rnuL1dBGBpYoeUhFyiNH-79" style="edgeStyle=orthogonalEdgeStyle;rounded=0;orthogonalLoop=1;jettySize=auto;html=1;entryX=0.969;entryY=0.939;entryDx=0;entryDy=0;entryPerimeter=0;" edge="1" parent="1" source="rnuL1dBGBpYoeUhFyiNH-52" target="rnuL1dBGBpYoeUhFyiNH-11">
          <mxGeometry relative="1" as="geometry">
            <Array as="points">
              <mxPoint x="640" y="820" />
              <mxPoint x="640" y="550" />
            </Array>
          </mxGeometry>
        </mxCell>
        <mxCell id="rnuL1dBGBpYoeUhFyiNH-80" value="Go back" style="text;html=1;align=center;verticalAlign=middle;whiteSpace=wrap;rounded=0;" vertex="1" parent="1">
          <mxGeometry x="640" y="720" width="60" height="30" as="geometry" />
        </mxCell>
        <mxCell id="rnuL1dBGBpYoeUhFyiNH-81" value="Cancel button" style="text;html=1;align=center;verticalAlign=middle;whiteSpace=wrap;rounded=0;" vertex="1" parent="1">
          <mxGeometry x="750" y="700" width="60" height="30" as="geometry" />
        </mxCell>
        <mxCell id="rnuL1dBGBpYoeUhFyiNH-82" value="Review button" style="text;html=1;align=center;verticalAlign=middle;whiteSpace=wrap;rounded=0;" vertex="1" parent="1">
          <mxGeometry x="910" y="635" width="80" height="20" as="geometry" />
        </mxCell>
        <mxCell id="rnuL1dBGBpYoeUhFyiNH-85" style="edgeStyle=orthogonalEdgeStyle;rounded=0;orthogonalLoop=1;jettySize=auto;html=1;entryX=0.838;entryY=1.003;entryDx=0;entryDy=0;entryPerimeter=0;" edge="1" parent="1" source="rnuL1dBGBpYoeUhFyiNH-48" target="rnuL1dBGBpYoeUhFyiNH-11">
          <mxGeometry relative="1" as="geometry">
            <Array as="points">
              <mxPoint x="1000" y="890" />
              <mxPoint x="630" y="890" />
              <mxPoint x="630" y="560" />
            </Array>
          </mxGeometry>
        </mxCell>
        <mxCell id="rnuL1dBGBpYoeUhFyiNH-86" value="Go back" style="text;html=1;align=center;verticalAlign=middle;whiteSpace=wrap;rounded=0;" vertex="1" parent="1">
          <mxGeometry x="790" y="870" width="60" height="30" as="geometry" />
        </mxCell>
        <mxCell id="rnuL1dBGBpYoeUhFyiNH-87" value="Provide emergency contact" style="swimlane;fontStyle=1;align=center;verticalAlign=middle;childLayout=stackLayout;horizontal=1;startSize=30;horizontalStack=0;resizeParent=0;resizeLast=1;container=0;fontColor=#000000;collapsible=0;rounded=1;arcSize=30;strokeColor=#ff0000;fillColor=#ffffc0;swimlaneFillColor=#ffffc0;dropTarget=0;" vertex="1" parent="1">
          <mxGeometry x="-10" y="290" width="160" height="90" as="geometry" />
        </mxCell>
        <mxCell id="rnuL1dBGBpYoeUhFyiNH-88" value="entry: Emergency numbers&lt;div&gt;do: Call numbers&lt;/div&gt;&lt;div&gt;exit: Go back to dashboard&lt;/div&gt;" style="text;html=1;strokeColor=none;fillColor=none;align=center;verticalAlign=middle;spacingLeft=4;spacingRight=4;whiteSpace=wrap;overflow=hidden;rotatable=0;fontColor=#000000;" vertex="1" parent="rnuL1dBGBpYoeUhFyiNH-87">
          <mxGeometry y="30" width="160" height="60" as="geometry" />
        </mxCell>
        <mxCell id="rnuL1dBGBpYoeUhFyiNH-91" value="Switch language" style="swimlane;fontStyle=1;align=center;verticalAlign=middle;childLayout=stackLayout;horizontal=1;startSize=30;horizontalStack=0;resizeParent=0;resizeLast=1;container=0;fontColor=#000000;collapsible=0;rounded=1;arcSize=30;strokeColor=#ff0000;fillColor=#ffffc0;swimlaneFillColor=#ffffc0;dropTarget=0;" vertex="1" parent="1">
          <mxGeometry x="230" y="620" width="160" height="90" as="geometry" />
        </mxCell>
        <mxCell id="rnuL1dBGBpYoeUhFyiNH-92" value="do: Select language&lt;div&gt;exit: Save&lt;/div&gt;&lt;div&gt;exit: Go back to dashboard&lt;/div&gt;" style="text;html=1;strokeColor=none;fillColor=none;align=center;verticalAlign=middle;spacingLeft=4;spacingRight=4;whiteSpace=wrap;overflow=hidden;rotatable=0;fontColor=#000000;" vertex="1" parent="rnuL1dBGBpYoeUhFyiNH-91">
          <mxGeometry y="30" width="160" height="60" as="geometry" />
        </mxCell>
        <mxCell id="rnuL1dBGBpYoeUhFyiNH-94" value="Update profile" style="swimlane;fontStyle=1;align=center;verticalAlign=middle;childLayout=stackLayout;horizontal=1;startSize=30;horizontalStack=0;resizeParent=0;resizeLast=1;container=0;fontColor=#000000;collapsible=0;rounded=1;arcSize=30;strokeColor=#ff0000;fillColor=#ffffc0;swimlaneFillColor=#ffffc0;dropTarget=0;" vertex="1" parent="1">
          <mxGeometry x="-40" y="620" width="160" height="100" as="geometry" />
        </mxCell>
        <mxCell id="rnuL1dBGBpYoeUhFyiNH-95" value="do: Change personal information&lt;div&gt;exit: Save&lt;/div&gt;&lt;div&gt;exit: Go back to dashboard&lt;/div&gt;" style="text;html=1;strokeColor=none;fillColor=none;align=center;verticalAlign=middle;spacingLeft=4;spacingRight=4;whiteSpace=wrap;overflow=hidden;rotatable=0;fontColor=#000000;" vertex="1" parent="rnuL1dBGBpYoeUhFyiNH-94">
          <mxGeometry y="30" width="160" height="70" as="geometry" />
        </mxCell>
        <mxCell id="rnuL1dBGBpYoeUhFyiNH-112" style="edgeStyle=orthogonalEdgeStyle;rounded=0;orthogonalLoop=1;jettySize=auto;html=1;entryX=0;entryY=0.5;entryDx=0;entryDy=0;" edge="1" parent="1" source="rnuL1dBGBpYoeUhFyiNH-97" target="rnuL1dBGBpYoeUhFyiNH-11">
          <mxGeometry relative="1" as="geometry">
            <Array as="points">
              <mxPoint x="210" y="478" />
              <mxPoint x="210" y="478" />
            </Array>
          </mxGeometry>
        </mxCell>
        <mxCell id="rnuL1dBGBpYoeUhFyiNH-97" value="Contact support" style="swimlane;fontStyle=1;align=center;verticalAlign=middle;childLayout=stackLayout;horizontal=1;startSize=30;horizontalStack=0;resizeParent=0;resizeLast=1;container=0;fontColor=#000000;collapsible=0;rounded=1;arcSize=30;strokeColor=#ff0000;fillColor=#ffffc0;swimlaneFillColor=#ffffc0;dropTarget=0;" vertex="1" parent="1">
          <mxGeometry x="-40" y="465" width="160" height="90" as="geometry" />
        </mxCell>
        <mxCell id="rnuL1dBGBpYoeUhFyiNH-98" value="do: Write about your problem&lt;div&gt;exit: Go back to dashboard&lt;/div&gt;" style="text;html=1;strokeColor=none;fillColor=none;align=center;verticalAlign=middle;spacingLeft=4;spacingRight=4;whiteSpace=wrap;overflow=hidden;rotatable=0;fontColor=#000000;" vertex="1" parent="rnuL1dBGBpYoeUhFyiNH-97">
          <mxGeometry y="30" width="160" height="60" as="geometry" />
        </mxCell>
        <mxCell id="rnuL1dBGBpYoeUhFyiNH-100" value="Save" style="swimlane;fontStyle=1;align=center;verticalAlign=middle;childLayout=stackLayout;horizontal=1;startSize=30;horizontalStack=0;resizeParent=0;resizeLast=1;container=0;fontColor=#000000;collapsible=0;rounded=1;arcSize=30;strokeColor=#ff0000;fillColor=#ffffc0;swimlaneFillColor=#ffffc0;dropTarget=0;" vertex="1" parent="1">
          <mxGeometry x="150" y="810" width="160" height="60" as="geometry" />
        </mxCell>
        <mxCell id="rnuL1dBGBpYoeUhFyiNH-101" value="exit: System save changes" style="text;html=1;strokeColor=none;fillColor=none;align=center;verticalAlign=middle;spacingLeft=4;spacingRight=4;whiteSpace=wrap;overflow=hidden;rotatable=0;fontColor=#000000;" vertex="1" parent="rnuL1dBGBpYoeUhFyiNH-100">
          <mxGeometry y="30" width="160" height="30" as="geometry" />
        </mxCell>
        <mxCell id="rnuL1dBGBpYoeUhFyiNH-104" style="edgeStyle=orthogonalEdgeStyle;rounded=0;orthogonalLoop=1;jettySize=auto;html=1;entryX=0.99;entryY=0.385;entryDx=0;entryDy=0;entryPerimeter=0;" edge="1" parent="1" source="rnuL1dBGBpYoeUhFyiNH-10" target="rnuL1dBGBpYoeUhFyiNH-88">
          <mxGeometry relative="1" as="geometry">
            <Array as="points">
              <mxPoint x="308" y="380" />
              <mxPoint x="308" y="343" />
            </Array>
          </mxGeometry>
        </mxCell>
        <mxCell id="rnuL1dBGBpYoeUhFyiNH-105" value="Emergency" style="text;html=1;align=center;verticalAlign=middle;whiteSpace=wrap;rounded=0;" vertex="1" parent="1">
          <mxGeometry x="210" y="320" width="60" height="30" as="geometry" />
        </mxCell>
        <mxCell id="rnuL1dBGBpYoeUhFyiNH-108" style="edgeStyle=orthogonalEdgeStyle;rounded=0;orthogonalLoop=1;jettySize=auto;html=1;" edge="1" parent="1" source="rnuL1dBGBpYoeUhFyiNH-88">
          <mxGeometry relative="1" as="geometry">
            <mxPoint x="465" y="400" as="targetPoint" />
            <Array as="points">
              <mxPoint x="70" y="400" />
              <mxPoint x="465" y="400" />
            </Array>
          </mxGeometry>
        </mxCell>
        <mxCell id="rnuL1dBGBpYoeUhFyiNH-109" value="Go back" style="text;html=1;align=center;verticalAlign=middle;whiteSpace=wrap;rounded=0;" vertex="1" parent="1">
          <mxGeometry x="170" y="380" width="60" height="30" as="geometry" />
        </mxCell>
        <mxCell id="rnuL1dBGBpYoeUhFyiNH-110" style="edgeStyle=orthogonalEdgeStyle;rounded=0;orthogonalLoop=1;jettySize=auto;html=1;entryX=0.457;entryY=0.002;entryDx=0;entryDy=0;entryPerimeter=0;" edge="1" parent="1" source="rnuL1dBGBpYoeUhFyiNH-11" target="rnuL1dBGBpYoeUhFyiNH-97">
          <mxGeometry relative="1" as="geometry">
            <Array as="points">
              <mxPoint x="33" y="440" />
            </Array>
          </mxGeometry>
        </mxCell>
        <mxCell id="rnuL1dBGBpYoeUhFyiNH-111" value="Support" style="text;html=1;align=center;verticalAlign=middle;whiteSpace=wrap;rounded=0;" vertex="1" parent="1">
          <mxGeometry x="210" y="420" width="60" height="30" as="geometry" />
        </mxCell>
        <mxCell id="rnuL1dBGBpYoeUhFyiNH-113" value="Go back" style="text;html=1;align=center;verticalAlign=middle;whiteSpace=wrap;rounded=0;" vertex="1" parent="1">
          <mxGeometry x="220" y="460" width="60" height="30" as="geometry" />
        </mxCell>
        <mxCell id="rnuL1dBGBpYoeUhFyiNH-115" style="edgeStyle=orthogonalEdgeStyle;rounded=0;orthogonalLoop=1;jettySize=auto;html=1;entryX=0.25;entryY=1;entryDx=0;entryDy=0;" edge="1" parent="1" source="rnuL1dBGBpYoeUhFyiNH-100" target="rnuL1dBGBpYoeUhFyiNH-11">
          <mxGeometry relative="1" as="geometry">
            <Array as="points">
              <mxPoint x="460" y="840" />
              <mxPoint x="460" y="580" />
              <mxPoint x="505" y="580" />
            </Array>
          </mxGeometry>
        </mxCell>
        <mxCell id="rnuL1dBGBpYoeUhFyiNH-118" style="edgeStyle=orthogonalEdgeStyle;rounded=0;orthogonalLoop=1;jettySize=auto;html=1;" edge="1" parent="1" source="rnuL1dBGBpYoeUhFyiNH-11" target="rnuL1dBGBpYoeUhFyiNH-94">
          <mxGeometry relative="1" as="geometry">
            <Array as="points">
              <mxPoint x="160" y="500" />
              <mxPoint x="160" y="670" />
            </Array>
          </mxGeometry>
        </mxCell>
        <mxCell id="rnuL1dBGBpYoeUhFyiNH-119" style="edgeStyle=orthogonalEdgeStyle;rounded=0;orthogonalLoop=1;jettySize=auto;html=1;entryX=0;entryY=0.75;entryDx=0;entryDy=0;" edge="1" parent="1" source="rnuL1dBGBpYoeUhFyiNH-95" target="rnuL1dBGBpYoeUhFyiNH-11">
          <mxGeometry relative="1" as="geometry">
            <Array as="points">
              <mxPoint x="200" y="685" />
              <mxPoint x="200" y="519" />
            </Array>
          </mxGeometry>
        </mxCell>
        <mxCell id="rnuL1dBGBpYoeUhFyiNH-120" value="Go back" style="text;html=1;align=center;verticalAlign=middle;whiteSpace=wrap;rounded=0;" vertex="1" parent="1">
          <mxGeometry x="330" y="495" width="60" height="30" as="geometry" />
        </mxCell>
        <mxCell id="rnuL1dBGBpYoeUhFyiNH-121" style="edgeStyle=orthogonalEdgeStyle;rounded=0;orthogonalLoop=1;jettySize=auto;html=1;entryX=0.154;entryY=0.996;entryDx=0;entryDy=0;entryPerimeter=0;" edge="1" parent="1" source="rnuL1dBGBpYoeUhFyiNH-92" target="rnuL1dBGBpYoeUhFyiNH-11">
          <mxGeometry relative="1" as="geometry">
            <Array as="points">
              <mxPoint x="440" y="680" />
              <mxPoint x="440" y="559" />
            </Array>
          </mxGeometry>
        </mxCell>
        <mxCell id="rnuL1dBGBpYoeUhFyiNH-122" style="edgeStyle=orthogonalEdgeStyle;rounded=0;orthogonalLoop=1;jettySize=auto;html=1;" edge="1" parent="1" source="rnuL1dBGBpYoeUhFyiNH-11" target="rnuL1dBGBpYoeUhFyiNH-91">
          <mxGeometry relative="1" as="geometry">
            <Array as="points">
              <mxPoint x="310" y="550" />
            </Array>
          </mxGeometry>
        </mxCell>
        <mxCell id="rnuL1dBGBpYoeUhFyiNH-123" value="Update" style="text;html=1;align=center;verticalAlign=middle;whiteSpace=wrap;rounded=0;" vertex="1" parent="1">
          <mxGeometry x="100" y="560" width="60" height="30" as="geometry" />
        </mxCell>
        <mxCell id="rnuL1dBGBpYoeUhFyiNH-124" value="Switch" style="text;html=1;align=center;verticalAlign=middle;whiteSpace=wrap;rounded=0;" vertex="1" parent="1">
          <mxGeometry x="250" y="570" width="60" height="30" as="geometry" />
        </mxCell>
        <mxCell id="rnuL1dBGBpYoeUhFyiNH-126" value="Go back" style="text;html=1;align=center;verticalAlign=middle;whiteSpace=wrap;rounded=0;" vertex="1" parent="1">
          <mxGeometry x="380" y="600" width="60" height="30" as="geometry" />
        </mxCell>
        <mxCell id="rnuL1dBGBpYoeUhFyiNH-127" style="edgeStyle=orthogonalEdgeStyle;rounded=0;orthogonalLoop=1;jettySize=auto;html=1;entryX=0;entryY=0.25;entryDx=0;entryDy=0;" edge="1" parent="1" source="rnuL1dBGBpYoeUhFyiNH-95" target="rnuL1dBGBpYoeUhFyiNH-101">
          <mxGeometry relative="1" as="geometry">
            <Array as="points">
              <mxPoint x="40" y="848" />
            </Array>
          </mxGeometry>
        </mxCell>
        <mxCell id="rnuL1dBGBpYoeUhFyiNH-128" style="edgeStyle=orthogonalEdgeStyle;rounded=0;orthogonalLoop=1;jettySize=auto;html=1;" edge="1" parent="1" source="rnuL1dBGBpYoeUhFyiNH-92" target="rnuL1dBGBpYoeUhFyiNH-100">
          <mxGeometry relative="1" as="geometry" />
        </mxCell>
        <mxCell id="rnuL1dBGBpYoeUhFyiNH-129" value="Save" style="text;html=1;align=center;verticalAlign=middle;whiteSpace=wrap;rounded=0;" vertex="1" parent="1">
          <mxGeometry x="240" y="740" width="60" height="30" as="geometry" />
        </mxCell>
        <mxCell id="rnuL1dBGBpYoeUhFyiNH-130" value="Save" style="text;html=1;align=center;verticalAlign=middle;whiteSpace=wrap;rounded=0;" vertex="1" parent="1">
          <mxGeometry x="30" y="760" width="60" height="30" as="geometry" />
        </mxCell>
      </root>
    </mxGraphModel>
  </diagram>
</mxfile>
